<?xml version="1.0" standalone="no"?>
<!DOCTYPE svg PUBLIC "-//W3C//DTD SVG 20010904//EN"
 "http://www.w3.org/TR/2001/REC-SVG-20010904/DTD/svg10.dtd">
<svg version="1.0" xmlns="http://www.w3.org/2000/svg"
 width="50.000000pt" height="50.000000pt" viewBox="0 0 50.000000 50.000000"
 preserveAspectRatio="xMidYMid meet">
<metadata>
Created by potrace 1.15, written by Peter Selinger 2001-2017
</metadata>
<g transform="translate(0.000000,50.000000) scale(0.100000,-0.100000)"
fill="#000000" stroke="none">
<path d="M10 410 c0 -33 4 -60 10 -60 6 0 10 -62 10 -165 l0 -165 220 0 220 0
0 165 c0 103 4 165 10 165 6 0 10 27 10 60 l0 60 -240 0 -240 0 0 -60z m450 5
l0 -35 -215 0 -215 0 0 35 0 35 215 0 215 0 0 -35z m-20 -215 l0 -150 -195 0
-195 0 0 150 0 150 195 0 195 0 0 -150z"/>
<path d="M146 304 c-19 -19 -20 -25 -3 -47 10 -15 27 -17 112 -15 98 3 100 4
103 27 6 39 -21 51 -114 51 -62 0 -87 -4 -98 -16z"/>
</g>
</svg>
