<?xml version="1.0" standalone="no"?>
<!DOCTYPE svg PUBLIC "-//W3C//DTD SVG 20010904//EN"
 "http://www.w3.org/TR/2001/REC-SVG-20010904/DTD/svg10.dtd">
<svg version="1.0" xmlns="http://www.w3.org/2000/svg"
 width="50.000000pt" height="50.000000pt" viewBox="0 0 50.000000 50.000000"
 preserveAspectRatio="xMidYMid meet">
<metadata>
Created by potrace 1.15, written by Peter Selinger 2001-2017
</metadata>
<g transform="translate(0.000000,50.000000) scale(0.100000,-0.100000)"
fill="#000000" stroke="none">
<path d="M12 422 c-9 -7 -12 -46 -10 -163 l3 -154 33 -3 c17 -2 32 -7 32 -12
0 -18 33 -40 60 -40 19 0 35 9 48 25 17 21 28 25 76 25 l56 0 0 155 c0 142 -1
155 -19 165 -23 12 -260 13 -279 2z m196 -88 c67 -75 -32 -176 -112 -113 -48
38 -29 119 34 142 24 8 53 -3 78 -29z"/>
<path d="M320 231 c0 -122 1 -129 25 -155 31 -34 76 -35 102 -3 10 13 26 26
36 30 14 5 17 19 17 80 0 69 -2 77 -34 119 -40 51 -52 58 -107 58 l-39 0 0
-129z"/>
</g>
</svg>
