<?xml version="1.0" standalone="no"?>
<!DOCTYPE svg PUBLIC "-//W3C//DTD SVG 20010904//EN"
 "http://www.w3.org/TR/2001/REC-SVG-20010904/DTD/svg10.dtd">
<svg version="1.0" xmlns="http://www.w3.org/2000/svg"
 width="50.000000pt" height="50.000000pt" viewBox="0 0 50.000000 50.000000"
 preserveAspectRatio="xMidYMid meet">
<metadata>
Created by potrace 1.15, written by Peter Selinger 2001-2017
</metadata>
<g transform="translate(0.000000,50.000000) scale(0.100000,-0.100000)"
fill="#000000" stroke="none">
<path d="M145 462 c-49 -23 -99 -78 -115 -127 -7 -20 -10 -67 -8 -105 5 -87
40 -141 119 -183 48 -26 61 -28 122 -24 80 5 132 36 180 103 38 54 48 144 23
209 -10 25 -22 45 -26 45 -18 0 -19 -19 -5 -54 23 -54 19 -107 -13 -167 -22
-43 -38 -59 -81 -81 -107 -56 -218 -21 -273 86 -56 110 8 250 130 281 58 15
100 9 161 -25 l40 -23 -56 -66 c-31 -36 -68 -78 -81 -93 l-25 -27 -43 35 c-62
51 -68 24 -8 -37 37 -38 51 -46 61 -37 8 6 57 62 110 125 70 84 93 117 85 125
-8 8 -16 7 -29 -3 -10 -7 -15 -9 -11 -5 5 5 -9 21 -30 35 -50 35 -166 41 -227
13z"/>
</g>
</svg>
