<?xml version="1.0" standalone="no"?>
<!DOCTYPE svg PUBLIC "-//W3C//DTD SVG 20010904//EN"
 "http://www.w3.org/TR/2001/REC-SVG-20010904/DTD/svg10.dtd">
<svg version="1.0" xmlns="http://www.w3.org/2000/svg"
 width="50.000000pt" height="50.000000pt" viewBox="0 0 50.000000 50.000000"
 preserveAspectRatio="xMidYMid meet">
<metadata>
Created by potrace 1.15, written by Peter Selinger 2001-2017
</metadata>
<g transform="translate(0.000000,50.000000) scale(0.100000,-0.100000)"
fill="#000000" stroke="none">
<path d="M196 478 c-20 -28 -20 -49 -1 -74 20 -26 19 -31 -10 -38 -19 -5 -28
-17 -37 -51 l-12 -45 -68 0 -68 0 0 -35 c0 -19 5 -35 10 -35 6 0 10 -40 10
-100 l0 -100 230 0 230 0 0 100 c0 60 4 100 10 100 6 0 10 15 10 33 0 24 -7
37 -30 52 -16 11 -30 23 -30 28 0 15 -24 6 -46 -18 -31 -34 -44 -31 -44 8 0
34 -18 58 -53 70 -17 6 -17 8 -3 23 20 20 21 68 0 88 -24 24 -80 20 -98 -6z
m254 -363 l0 -85 -205 0 -205 0 0 85 0 85 205 0 205 0 0 -85z"/>
</g>
</svg>
