<?xml version="1.0" standalone="no"?>
<!DOCTYPE svg PUBLIC "-//W3C//DTD SVG 20010904//EN"
 "http://www.w3.org/TR/2001/REC-SVG-20010904/DTD/svg10.dtd">
<svg version="1.0" xmlns="http://www.w3.org/2000/svg"
 width="50.000000pt" height="50.000000pt" viewBox="0 0 50.000000 50.000000"
 preserveAspectRatio="xMidYMid meet">
<metadata>
Created by potrace 1.15, written by Peter Selinger 2001-2017
</metadata>
<g transform="translate(0.000000,50.000000) scale(0.100000,-0.100000)"
fill="#000000" stroke="none">
<path d="M23 485 c-25 -18 -31 -45 -9 -45 7 0 19 7 26 15 7 9 20 15 28 13 8
-2 41 -69 77 -153 81 -196 81 -195 56 -188 -44 11 -83 -37 -61 -77 10 -19 8
-20 -65 -20 -60 0 -75 -3 -75 -15 0 -13 34 -15 250 -15 216 0 250 2 250 15 0
13 -22 15 -134 15 -129 0 -134 1 -129 20 3 11 9 18 13 15 15 -9 250 76 250 91
0 19 -2 19 -121 -21 -84 -29 -106 -33 -113 -22 -5 7 -43 96 -85 198 -73 177
-77 184 -106 187 -17 1 -40 -4 -52 -13z"/>
</g>
</svg>
