<?xml version="1.0" standalone="no"?>
<!DOCTYPE svg PUBLIC "-//W3C//DTD SVG 20010904//EN"
 "http://www.w3.org/TR/2001/REC-SVG-20010904/DTD/svg10.dtd">
<svg version="1.0" xmlns="http://www.w3.org/2000/svg"
 width="50.000000pt" height="50.000000pt" viewBox="0 0 50.000000 50.000000"
 preserveAspectRatio="xMidYMid meet">
<metadata>
Created by potrace 1.15, written by Peter Selinger 2001-2017
</metadata>
<g transform="translate(0.000000,50.000000) scale(0.100000,-0.100000)"
fill="#000000" stroke="none">
<path d="M256 482 c-4 -7 31 -133 89 -312 8 -25 8 -25 -14 -6 -11 11 -21 28
-21 38 0 11 -9 22 -20 25 -14 4 -26 28 -46 87 -15 44 -31 87 -37 94 -7 9 -34
12 -91 10 l-81 -3 -3 -70 c-2 -48 -8 -72 -18 -78 -11 -6 -14 -31 -14 -108 0
-127 14 -159 72 -159 17 0 34 9 46 25 25 32 54 32 86 0 34 -34 84 -34 125 1
19 16 31 36 32 52 1 17 3 21 6 9 5 -20 15 -21 83 -6 32 7 50 16 50 25 0 12 -8
13 -35 8 -19 -3 -42 -7 -51 -8 -13 -1 -29 38 -73 181 -54 174 -72 216 -85 195z
m-44 -172 c29 -87 22 -101 -29 -60 -18 14 -41 20 -74 20 l-49 0 0 60 0 60 63
0 63 0 26 -80z m-47 -90 c13 -15 31 -20 69 -20 l51 -1 -38 -14 c-43 -15 -63
-37 -72 -78 -8 -34 -27 -34 -59 -2 -27 27 -47 31 -77 15 -18 -10 -19 -7 -19
48 0 32 3 62 7 65 3 4 32 7 63 7 44 0 61 -4 75 -20z"/>
</g>
</svg>
