<?xml version="1.0" standalone="no"?>
<!DOCTYPE svg PUBLIC "-//W3C//DTD SVG 20010904//EN"
 "http://www.w3.org/TR/2001/REC-SVG-20010904/DTD/svg10.dtd">
<svg version="1.0" xmlns="http://www.w3.org/2000/svg"
 width="50.000000pt" height="50.000000pt" viewBox="0 0 50.000000 50.000000"
 preserveAspectRatio="xMidYMid meet">
<metadata>
Created by potrace 1.15, written by Peter Selinger 2001-2017
</metadata>
<g transform="translate(0.000000,50.000000) scale(0.100000,-0.100000)"
fill="#000000" stroke="none">
<path d="M12 422 c-9 -7 -12 -46 -10 -163 l3 -154 33 -3 c17 -2 32 -7 32 -12
0 -18 33 -40 60 -40 19 0 35 9 48 25 17 22 28 25 82 25 54 0 66 -3 86 -25 30
-33 76 -33 101 -2 10 13 26 26 36 30 14 5 17 19 17 80 0 69 -2 77 -34 119 -40
52 -51 58 -112 58 -42 0 -44 1 -44 29 0 21 -6 30 -22 35 -34 9 -261 7 -276 -2z
m268 -157 l0 -135 -40 0 c-28 0 -46 7 -64 25 -24 24 -24 25 -5 25 11 0 34 13
50 29 38 39 40 96 4 139 -29 34 -63 44 -111 30 -44 -12 -67 -47 -66 -101 1
-34 7 -47 31 -69 l31 -27 -26 -26 c-14 -14 -33 -25 -42 -23 -15 3 -17 21 -20
123 -1 65 0 125 2 132 4 10 37 13 131 13 l125 0 0 -135z"/>
</g>
</svg>
